<?xml version="1.0" encoding="utf-8"?>
<!-- Generator: Adobe Illustrator 26.0.1, SVG Export Plug-In . SVG Version: 6.00 Build 0)  -->
<svg version="1.1" id="_x30_" xmlns="http://www.w3.org/2000/svg" xmlns:xlink="http://www.w3.org/1999/xlink" x="0px" y="0px"
	 viewBox="0 0 172 35" style="enable-background:new 0 0 172 35;" xml:space="preserve">
<style type="text/css">
	.st0{fill:#FFFFFF;}
	.st1{opacity:0.5;fill-rule:evenodd;clip-rule:evenodd;fill:#FFFFFF;}
</style>
<g id="_x32_">
	<path id="_x31_3" class="st0" d="M39.6,10c-1.7,0-3.3,0.1-4.6,0.4v17.4c0.9,0.1,2.2,0.2,3.8,0.2c3.1,0,5.5-0.7,7.1-2.2
		c1.4-1.2,2.7-3.4,2.7-7.2c0-3.2-1-5.4-2.7-6.8C44.5,10.6,42.5,10,39.6,10z M39.7,25.3c-0.5,0-1,0-1.3-0.1V12.8
		c0.4-0.1,0.9-0.1,1.6-0.1c3.1,0,5.1,2,5.1,6C45.1,23.3,42.9,25.3,39.7,25.3z"/>
	<path id="_x31_2" class="st0" d="M56.2,14.8c-3.7,0-5.8,3.2-5.8,6.9c0,4,2.2,6.5,6.2,6.5c1.6,0,3.1-0.3,4.1-0.7L60.1,25
		c-0.9,0.3-1.9,0.5-3.1,0.5c-1.8,0-3.4-0.9-3.5-3.1h7.6c0.1-0.4,0.1-0.9,0.1-1.4C61.3,17,59.2,14.8,56.2,14.8z M53.5,20.1
		c0.1-1.3,0.8-3,2.4-3c1.7,0,2.2,1.6,2.2,3H53.5z"/>
	<path id="_x31_1" class="st0" d="M70.7,15l-1.6,6.2c-0.3,1.1-0.5,2.2-0.7,3.3h-0.1c-0.2-1.1-0.4-2.2-0.7-3.3L66,15h-3.6l4.3,12.8
		h3.3L74.2,15H70.7z"/>
	<path id="_x31_0" class="st0" d="M5.7,25c-0.6,0.8-1.1,1.4-1.4,2.1C4.2,27.3,4,27.7,4,28v0.4c0,0.8,0.6,1.4,1.4,1.4h21.3
		c0.8,0,1.4-0.6,1.4-1.4V12.2C16.4,14.3,9.3,20.5,5.7,25z"/>
	<path id="_x39_" class="st0" d="M79.6,20.1h5.8v-2.8h-5.8V13h6.1v-2.9h-9.5v17.7H86V25h-6.5V20.1z"/>
	<path id="_x38_" class="st0" d="M98.8,15h-3.6l-1.1,2.3c-0.3,0.7-0.6,1.4-0.9,2.1h0c-0.3-0.6-0.6-1.3-1-2L90.9,15h-3.8l3.8,6.3
		l-3.9,6.5h3.6l1.2-2.5c0.3-0.7,0.6-1.3,0.9-2h0c0.3,0.7,0.6,1.4,1,2l1.3,2.5h3.8L95,21.2L98.8,15z"/>
	<path id="_x37_" class="st0" d="M107.4,14.8c-1.7,0-3,0.7-3.8,2h0l-0.2-1.8h-3c0,1.2,0.1,2.5,0.1,4.2V33h3.4v-6.4h0
		c0.5,0.9,1.6,1.5,3,1.5c2.6,0,5.2-2.1,5.2-6.8C112.3,17.4,110.2,14.8,107.4,14.8z M106.3,25.4c-1.1,0-2.3-0.9-2.3-2.8v-2.4
		c0-1.5,1-2.8,2.3-2.8c1.7,0,2.5,1.7,2.5,3.9C108.9,23.7,108,25.4,106.3,25.4z"/>
	<path id="_x36_" class="st0" d="M117.7,17.3L117.7,17.3l-0.2-2.2h-2.9c0,1.2,0.1,2.4,0.1,4v8.8h3.4v-6.6c0-2.2,1.2-3.2,2.7-3.2
		c0.3,0,0.6,0,0.9,0.1v-3.2c-0.2,0-0.4-0.1-0.8-0.1C119.7,14.8,118.3,15.6,117.7,17.3z"/>
	<path id="_x35_" class="st0" d="M128.7,14.8c-3.7,0-5.8,3.2-5.8,6.9c0,4,2.2,6.5,6.2,6.5c1.6,0,3.1-0.3,4.1-0.7l-0.5-2.4
		c-0.9,0.3-1.9,0.5-3.1,0.5c-1.8,0-3.4-0.9-3.5-3.1h7.6c0.1-0.4,0.1-0.9,0.1-1.4C133.8,17,131.8,14.8,128.7,14.8z M126.1,20.1
		c0.1-1.3,0.8-3,2.4-3c1.7,0,2.2,1.6,2.2,3H126.1z"/>
	<path id="_x34_" class="st0" d="M140.8,20.1c-1.5-0.6-1.9-1-1.9-1.7c0-0.7,0.5-1.2,1.6-1.2c1,0,1.9,0.4,2.4,0.7l0.6-2.4
		c-0.7-0.4-1.9-0.7-3.2-0.7c-2.8,0-4.7,1.8-4.7,4.1c0,1.4,0.9,2.8,3.3,3.7c1.4,0.6,1.8,1,1.8,1.8c0,0.8-0.6,1.3-1.8,1.3
		c-1.1,0-2.3-0.5-3-0.9l-0.6,2.5c0.8,0.5,2.2,0.9,3.6,0.9c3.2,0,5-1.6,5-4.1C144,22.3,143,21,140.8,20.1z"/>
	<path id="_x33_" class="st0" d="M151,20.1c-1.5-0.6-1.9-1-1.9-1.7c0-0.7,0.5-1.2,1.6-1.2c1,0,1.9,0.4,2.4,0.7l0.6-2.4
		c-0.7-0.4-1.9-0.7-3.2-0.7c-2.8,0-4.7,1.8-4.7,4.1c0,1.4,0.9,2.8,3.3,3.7c1.4,0.6,1.8,1,1.8,1.8c0,0.8-0.6,1.3-1.8,1.3
		c-1.1,0-2.3-0.5-3-0.9l-0.6,2.5c0.8,0.5,2.2,0.9,3.6,0.9c3.2,0,5-1.6,5-4.1C154.1,22.3,153.1,21,151,20.1z"/>
	<path id="_x32__00000001627712636243800000000006192696085447293596_" class="st0" d="M26.6,6H5.4C4.6,6,4,6.6,4,7.4V20
		c4.2-4.4,11.7-9.2,23.1-10.5c0.3,0,0.9-0.2,0.9-1V7.4C28,6.6,27.4,6,26.6,6z"/>
	<path id="_x31__00000103255039730149740580000002243584768485138851_" class="st0" d="M157.4,14.3L157.4,14.3
		c0.4-0.1,0.6-0.3,0.6-0.6c0-0.2-0.1-0.4-0.2-0.5c-0.2-0.1-0.4-0.2-0.7-0.2h-0.8v2.3h0.5v-0.9h0.2c0.1,0,0.3,0.1,0.3,0.3l0.2,0.6
		h0.5l-0.3-0.7C157.7,14.4,157.6,14.3,157.4,14.3z M157.1,14h-0.3v-0.7h0.3c0.3,0,0.4,0.1,0.4,0.3c0,0.1,0,0.2-0.1,0.3
		C157.3,14,157.2,14,157.1,14z"/>
	<path id="_x30__00000021119693476681668620000012664185799001838242_" class="st0" d="M158.5,12.8c-0.4-0.4-0.8-0.5-1.3-0.5
		c-0.5,0-1,0.2-1.4,0.5c-0.4,0.4-0.6,0.8-0.6,1.3c0,0.5,0.2,1,0.5,1.3c0.4,0.3,0.8,0.5,1.4,0.5c0.5,0,1-0.2,1.4-0.5
		c0.4-0.4,0.6-0.8,0.6-1.3C159,13.6,158.8,13.2,158.5,12.8z M158.2,15.3c-0.3,0.3-0.7,0.5-1.1,0.5c-0.4,0-0.8-0.2-1.1-0.5
		c-0.3-0.3-0.5-0.7-0.5-1.1c0-0.5,0.2-0.8,0.5-1.1c0.3-0.3,0.7-0.5,1.1-0.5c0.5,0,0.8,0.2,1.1,0.5c0.3,0.3,0.5,0.7,0.5,1.1
		C158.7,14.6,158.5,15,158.2,15.3z"/>
</g>
<path id="_x31_" class="st1" d="M152.1,9.4v2h-0.9v-2l-1.2-3h1l0.7,2l0.7-2h1L152.1,9.4z M149.1,9.2c0.1,0.2,0.2,0.5,0.2,0.8
	c0,0.5-0.1,0.8-0.4,1.1c-0.2,0.3-0.6,0.4-1,0.4h-1.5v-5h1.3c0.5,0,0.9,0.1,1.1,0.3c0.2,0.2,0.4,0.5,0.4,1c0,0.3-0.1,0.5-0.2,0.7
	c-0.1,0.2-0.3,0.3-0.5,0.4v0C148.7,8.9,148.9,9,149.1,9.2z M148.1,7.3c-0.1-0.1-0.2-0.1-0.4-0.1h-0.4v1.2h0.4c0.2,0,0.3-0.1,0.4-0.2
	c0.1-0.1,0.1-0.3,0.1-0.5C148.2,7.6,148.2,7.4,148.1,7.3z M147.7,9.2h-0.5v1.4h0.5c0.2,0,0.3-0.1,0.4-0.2c0.1-0.1,0.1-0.3,0.1-0.6
	C148.3,9.4,148.1,9.2,147.7,9.2z M141,11.4h-1.2v-5h1.3c0.6,0,1,0.2,1.4,0.6c0.3,0.4,0.5,1,0.5,1.8c0,0.8-0.2,1.5-0.5,1.9
	C142.1,11.2,141.6,11.4,141,11.4z M141.1,7.2h-0.4v3.4h0.3c0.3,0,0.6-0.1,0.8-0.4c0.2-0.3,0.2-0.7,0.2-1.3
	C142,7.8,141.7,7.2,141.1,7.2z M136.3,6.4h2.3v0.8h-1.3v1.2h1.2v0.8h-1.2v1.4h1.3v0.8h-2.3V6.4z M134.4,11.4l-0.8-1.9h-0.3v1.9h-0.9
	v-5h1.2c0.5,0,0.9,0.1,1.1,0.4c0.2,0.2,0.4,0.6,0.4,1.1c0,0.6-0.2,1.1-0.6,1.3l1,2.2H134.4z M134,7.4c-0.1-0.1-0.3-0.2-0.5-0.2h-0.2
	v1.4h0.2c0.2,0,0.4-0.1,0.5-0.2c0.1-0.1,0.1-0.3,0.1-0.6C134.1,7.7,134.1,7.5,134,7.4z M128.8,6.4h2.3v0.8h-1.3v1.2h1.2v0.8h-1.2
	v1.4h1.3v0.8h-2.3V6.4z M125.8,11.4l-0.5-2.6c-0.1-0.4-0.1-0.8-0.2-1.3l0,0.3l-0.1,1l-0.5,2.6h-1.2l-0.9-5h0.9l0.4,2.8
	c0,0.3,0.1,0.7,0.2,1.3c0.1-0.6,0.1-1,0.2-1.3l0.5-2.8h1l0.5,2.8c0.1,0.4,0.1,0.9,0.2,1.3c0.1-0.7,0.1-1.1,0.2-1.3l0.4-2.8h0.9
	l-0.9,5H125.8z M119.8,11.5c-0.6,0-1-0.2-1.3-0.7c-0.3-0.4-0.5-1.1-0.5-1.9c0-0.8,0.2-1.5,0.5-1.9c0.3-0.4,0.8-0.7,1.3-0.7
	c0.6,0,1,0.2,1.3,0.7c0.3,0.4,0.5,1.1,0.5,1.9c0,0.8-0.2,1.5-0.5,1.9C120.8,11.3,120.4,11.5,119.8,11.5z M119.8,7.2
	c-0.3,0-0.5,0.1-0.6,0.4C119,7.9,119,8.3,119,8.9c0,0.6,0.1,1,0.2,1.3c0.1,0.3,0.4,0.4,0.6,0.4c0.6,0,0.8-0.6,0.8-1.8
	S120.4,7.2,119.8,7.2z M115.5,9.6h-0.2v1.8h-0.9v-5h1.3c1,0,1.5,0.5,1.5,1.5c0,0.5-0.1,0.9-0.4,1.2C116.4,9.5,116,9.6,115.5,9.6z
	 M115.9,7.4c-0.1-0.1-0.3-0.2-0.5-0.2h-0.2v1.6h0.2c0.2,0,0.4-0.1,0.5-0.2c0.1-0.1,0.2-0.3,0.2-0.6C116.1,7.7,116,7.5,115.9,7.4z"/>
</svg>
