<?xml version="1.0" encoding="utf-8"?>
<!-- Generator: Adobe Illustrator 26.0.1, SVG Export Plug-In . SVG Version: 6.00 Build 0)  -->
<svg version="1.1" id="_x31_" xmlns="http://www.w3.org/2000/svg" xmlns:xlink="http://www.w3.org/1999/xlink" x="0px" y="0px"
	 viewBox="0 0 307 46" style="enable-background:new 0 0 307 46;" xml:space="preserve">
<style type="text/css">
	.st0{fill:#FFFFFF;}
</style>
<g id="_x32_">
	<g>
		<path class="st0" d="M3.2,36.7c-1.2,1.5-2.1,2.8-2.7,4C0.3,41,0,41.9,0,42.5v0.9C0,44.8,1.2,46,2.7,46h40.7c1.5,0,2.6-1.2,2.6-2.7
			V12C23.7,15.9,10.2,28,3.2,36.7z M43.3,0H2.7C1.2,0,0,1.2,0,2.6V27C8.1,18.6,22.4,9.3,44.2,6.8c0.6-0.1,1.7-0.3,1.7-2V2.6
			C46,1.2,44.8,0,43.3,0z M70.3,7.1H58.6V40h11.7c5.3,0,9.6-1.5,12.7-4.6c3.2-3.1,4.8-7.2,4.8-12.3C87.8,12.5,82,7.1,70.3,7.1z
			 M77.3,31.1C75.4,33,72.9,34,69.7,34H66V13.1h3.6c3.3,0,5.8,0.9,7.6,2.7c1.8,1.8,2.7,4.3,2.7,7.4C80,26.6,79.1,29.2,77.3,31.1z
			 M104.1,15.9c-4,0-7.1,1.1-9.4,3.3c-2.3,2.2-3.5,5.2-3.5,9.1c0,3.8,1.1,6.7,3.4,8.9c2.2,2.2,5.3,3.3,9.2,3.3c4,0,7.1-1.1,9.4-3.4
			c2.3-2.3,3.4-5.3,3.4-9.2c0-3.6-1.1-6.5-3.3-8.7C111,17,108,15.9,104.1,15.9z M104,35c-3.6,0-5.5-2.3-5.5-6.8c0-2.2,0.5-3.8,1.4-5
			c0.9-1.2,2.3-1.8,4-1.8c3.5,0,5.3,2.2,5.3,6.6C109.2,32.7,107.5,35,104,35z M123.5,19.4c-2.4,2.3-3.6,5.5-3.6,9.4
			c0,3.5,1.1,6.3,3.4,8.5c2.2,2.2,5.2,3.3,8.8,3.3c3.1,0,5.5-0.5,7.1-1.4v-5.8c-1.7,1.1-3.5,1.7-5.3,1.7c-2,0-3.6-0.6-4.8-1.8
			c-1.2-1.2-1.7-2.8-1.7-4.9c0-2.1,0.6-3.8,1.8-5c1.2-1.2,2.9-1.8,4.9-1.8c1.9,0,3.6,0.6,5.1,1.7V17c-1.2-0.7-3.2-1.1-6-1.1
			C129.1,15.9,125.9,17.1,123.5,19.4z M159,30c0,1.6-0.4,2.8-1.2,3.7c-0.8,0.9-1.8,1.4-3.1,1.4c-2.6,0-3.9-1.7-3.9-5V16.5h-7.2v14.2
			c0,6.6,2.7,9.9,8.2,9.9c3,0,5.4-1.4,7.2-4.2h0.1V40h7.2V16.5H159V30z M201.9,15.9c-3.5,0-6.1,1.5-7.9,4.4
			c-1.2-2.9-3.5-4.4-6.8-4.4c-1.6,0-3.1,0.4-4.4,1.2c-1.4,0.8-2.4,1.8-3.2,3.1h-0.1v-3.7h-7.3V40h7.3V27c0-1.7,0.4-3,1.1-4
			c0.7-1,1.7-1.5,3-1.5c2.5,0,3.7,1.7,3.7,5V40h7.3V26.9c0-1.5,0.4-2.8,1.1-3.8c0.7-1,1.7-1.5,2.9-1.5c2.5,0,3.8,1.7,3.8,5.1V40h7.2
			V25.4C209.6,19.1,207,15.9,201.9,15.9z M225.7,15.9c-3.3,0-6.1,1.1-8.4,3.4c-2.3,2.3-3.4,5.4-3.4,9.3c0,3.8,1,6.7,3.1,8.8
			c2.1,2.1,5,3.2,8.8,3.2c3.5,0,6.3-0.6,8.5-1.7v-5.2c-2,1.2-4.2,1.8-6.8,1.8c-4.1,0-6.2-1.7-6.4-5.1h15.3v-3.1
			c0-3.5-0.9-6.2-2.8-8.3C231.8,17,229.1,15.9,225.7,15.9z M221.1,25.9c0.2-1.4,0.7-2.6,1.5-3.6c0.8-1,1.9-1.4,3-1.4
			c2.7,0,4.1,1.7,4.1,5H221.1z M255.7,15.9c-3.3,0-5.8,1.4-7.6,4.3H248v-3.7h-7.3V40h7.3V26.6c0-1.5,0.4-2.7,1.2-3.7
			c0.8-1,1.8-1.4,3.1-1.4c2.6,0,3.9,1.8,3.9,5.5V40h7.2V25.6C263.5,19.2,260.9,15.9,255.7,15.9z M278.1,9.4l-7.2,2.1v5.1h-3.8v5.3
			h3.8v10.8c0,5.3,2.6,8,7.7,8c2.2,0,3.8-0.3,4.8-0.8v-5.4c-0.8,0.4-1.6,0.7-2.4,0.7c-1.9,0-2.9-1.2-2.9-3.7v-9.5h5.3v-5.3h-5.3V9.4
			z M303.5,30.3c-0.3-0.7-0.7-1.3-1.3-1.9c-0.6-0.5-1.2-1-2-1.4c-0.8-0.4-1.7-0.8-2.6-1.1c-0.5-0.2-1.1-0.4-1.6-0.5
			c-0.5-0.2-1-0.4-1.5-0.6c-0.4-0.2-0.8-0.5-1.1-0.8c-0.3-0.3-0.4-0.7-0.4-1.1c0-0.3,0.1-0.6,0.3-0.9c0.2-0.3,0.4-0.5,0.8-0.6
			c0.3-0.2,0.7-0.3,1.1-0.4c0.4-0.1,0.9-0.1,1.3-0.1c1,0,2,0.1,3.1,0.4c1,0.3,2,0.7,2.9,1.2v-5.6c-1-0.3-2.1-0.5-3.2-0.7
			c-1.1-0.2-2.1-0.2-3.2-0.2c-1.3,0-2.6,0.1-3.8,0.4c-1.2,0.3-2.3,0.7-3.3,1.3c-1,0.6-1.7,1.4-2.3,2.3c-0.6,0.9-0.9,2.1-0.9,3.4
			c0,1,0.1,1.8,0.4,2.5c0.3,0.7,0.6,1.3,1.1,1.9c0.5,0.5,1.1,1,1.8,1.4c0.7,0.4,1.5,0.8,2.5,1.1c0.6,0.2,1.2,0.4,1.8,0.6
			c0.6,0.2,1.2,0.4,1.7,0.6c0.5,0.2,1,0.5,1.3,0.8c0.3,0.3,0.5,0.7,0.5,1.1c0,0.7-0.4,1.3-1.1,1.6c-0.7,0.4-1.8,0.5-3,0.5
			c-1.1,0-2.2-0.2-3.4-0.5c-1.2-0.4-2.4-0.9-3.6-1.6v5.9c2.2,0.8,4.6,1.2,7.2,1.2c1.4,0,2.8-0.1,4.1-0.4s2.5-0.7,3.5-1.4
			c1-0.6,1.8-1.4,2.4-2.4c0.6-1,0.9-2.2,0.9-3.6C304,31.8,303.8,31,303.5,30.3z"/>
	</g>
</g>
</svg>
